<?xml version="1.0" standalone="no"?>
<!DOCTYPE svg PUBLIC "-//W3C//DTD SVG 20010904//EN"
 "http://www.w3.org/TR/2001/REC-SVG-20010904/DTD/svg10.dtd">
<svg version="1.0" xmlns="http://www.w3.org/2000/svg"
 width="518.000000pt" height="518.000000pt" viewBox="0 0 518.000000 518.000000"
 preserveAspectRatio="xMidYMid meet">
<metadata>
Created by potrace 1.14, written by Peter Selinger 2001-2017
</metadata>
<g transform="translate(0.000000,518.000000) scale(0.100000,-0.100000)"
fill="#000000" stroke="none">
<path d="M1708 5153 c486 -2 1278 -2 1760 0 482 1 85 2 -883 2 -968 0 -1363
-1 -877 -2z"/>
<path d="M758 5143 c12 -2 30 -2 40 0 9 3 -1 5 -23 4 -22 0 -30 -2 -17 -4z"/>
<path d="M4415 5140 c73 -12 186 -45 239 -71 48 -23 58 -24 29 -4 -37 26 -199
75 -265 80 l-63 4 60 -9z"/>
<path d="M698 5133 c6 -2 18 -2 25 0 6 3 1 5 -13 5 -14 0 -19 -2 -12 -5z"/>
<path d="M658 5123 c7 -3 16 -2 19 1 4 3 -2 6 -13 5 -11 0 -14 -3 -6 -6z"/>
<path d="M488 5064 c-39 -21 -35 -28 5 -8 37 19 44 24 31 24 -5 -1 -21 -8 -36
-16z"/>
<path d="M4710 5046 c0 -3 9 -10 20 -16 11 -6 20 -8 20 -6 0 3 -9 10 -20 16
-11 6 -20 8 -20 6z"/>
<path d="M361 4980 c-92 -69 -170 -159 -225 -257 -41 -74 -96 -227 -95 -264 0
-13 9 10 20 51 23 89 73 197 127 277 45 66 156 176 220 218 39 25 49 35 38 35
-3 0 -41 -27 -85 -60z"/>
<path d="M4795 4994 c110 -105 170 -158 135 -120 -49 54 -92 93 -124 115 -12
8 -16 10 -11 5z"/>
<path d="M4970 4816 c0 -2 8 -10 18 -17 15 -13 16 -12 3 4 -13 16 -21 21 -21
13z"/>
<path d="M5021 4746 c12 -20 23 -36 25 -36 7 0 -25 58 -36 65 -5 3 -1 -10 11
-29z"/>
<path d="M5080 4635 c0 -5 5 -17 10 -25 5 -8 10 -10 10 -5 0 6 -5 17 -10 25
-5 8 -10 11 -10 5z"/>
<path d="M5121 4514 c0 -11 3 -14 6 -6 3 7 2 16 -1 19 -3 4 -6 -2 -5 -13z"/>
<path d="M5131 4474 c0 -11 3 -14 6 -6 3 7 2 16 -1 19 -3 4 -6 -2 -5 -13z"/>
<path d="M5142 4410 c0 -19 2 -27 5 -17 2 9 2 25 0 35 -3 9 -5 1 -5 -18z"/>
<path d="M33 4395 c0 -22 2 -30 4 -17 2 12 2 30 0 40 -3 9 -5 -1 -4 -23z"/>
<path d="M5155 2590 c0 -965 1 -1360 2 -878 2 483 2 1273 0 1755 -1 483 -2 88
-2 -877z"/>
<path d="M25 2585 c0 -962 1 -1355 2 -872 2 483 2 1271 0 1750 -1 480 -2 85
-2 -878z"/>
<path d="M2566 4205 c-126 -45 -195 -193 -151 -324 24 -74 90 -136 166 -159
l59 -17 0 -442 0 -441 -32 -7 c-96 -21 -178 -100 -201 -195 l-12 -50 -442 0
c-403 0 -443 1 -443 16 0 40 -27 99 -63 140 -72 82 -166 110 -268 81 -236 -69
-240 -405 -6 -483 138 -46 292 37 328 177 l13 49 440 0 441 0 17 -59 c25 -84
86 -145 167 -167 l61 -17 0 -443 0 -442 -32 -7 c-88 -19 -175 -99 -198 -180
-28 -100 11 -216 91 -275 57 -41 102 -53 175 -47 275 22 319 399 57 493 -21 7
-46 13 -55 14 -17 0 -18 28 -18 443 l0 444 54 12 c29 6 71 25 93 41 41 30 86
103 98 158 l7 32 441 0 442 0 18 -61 c53 -181 287 -239 422 -104 69 69 92 173
60 266 -22 62 -55 101 -116 134 -74 41 -170 42 -244 5 -60 -31 -111 -98 -128
-169 l-12 -51 -441 0 -442 0 -7 37 c-19 105 -103 189 -208 208 l-37 7 0 442 0
443 51 11 c71 17 129 60 164 124 25 45 30 64 30 123 0 83 -21 131 -77 186 -65
63 -174 86 -262 54z"/>
<path d="M1576 3795 c-98 -35 -166 -133 -166 -239 1 -215 242 -333 414 -202
47 35 96 136 96 196 0 180 -175 305 -344 245z"/>
<path d="M3557 3795 c-202 -74 -225 -353 -38 -463 40 -23 57 -27 126 -27 69 0
86 4 126 27 120 70 162 220 97 344 -57 111 -193 162 -311 119z"/>
<path d="M1577 1815 c-98 -36 -167 -133 -167 -233 0 -112 47 -190 146 -238 48
-23 63 -26 124 -22 115 9 200 75 230 182 55 199 -141 381 -333 311z"/>
<path d="M3553 1814 c-134 -48 -202 -222 -137 -352 49 -98 136 -147 245 -140
188 14 294 201 208 372 -55 111 -193 163 -316 120z"/>
<path d="M33 780 c0 -25 2 -35 4 -22 2 12 2 32 0 45 -2 12 -4 2 -4 -23z"/>
<path d="M5142 765 c0 -16 2 -22 5 -12 2 9 2 23 0 30 -3 6 -5 -1 -5 -18z"/>
<path d="M42 710 c0 -14 2 -19 5 -12 2 6 2 18 0 25 -3 6 -5 1 -5 -13z"/>
<path d="M5131 704 c0 -11 3 -14 6 -6 3 7 2 16 -1 19 -3 4 -6 -2 -5 -13z"/>
<path d="M51 670 c0 -8 4 -24 9 -35 5 -13 9 -14 9 -5 0 8 -4 24 -9 35 -5 13
-9 14 -9 5z"/>
<path d="M5121 664 c0 -11 3 -14 6 -6 3 7 2 16 -1 19 -3 4 -6 -2 -5 -13z"/>
<path d="M71 608 c-1 -12 31 -89 35 -85 3 2 -4 24 -15 48 -11 24 -20 41 -20
37z"/>
<path d="M140 450 c6 -11 13 -20 16 -20 2 0 0 9 -6 20 -6 11 -13 20 -16 20 -2
0 0 -9 6 -20z"/>
<path d="M168 405 c6 -11 29 -41 52 -65 40 -44 40 -44 -6 15 -56 72 -60 76
-46 50z"/>
<path d="M4966 352 c-22 -27 -24 -32 -7 -17 20 17 47 55 39 55 -2 0 -16 -17
-32 -38z"/>
<path d="M4909 283 c-13 -16 -12 -17 4 -4 16 13 21 21 13 21 -2 0 -10 -8 -17
-17z"/>
<path d="M300 251 c25 -23 59 -51 75 -62 17 -12 5 2 -25 30 -30 28 -64 56 -75
62 -11 6 0 -7 25 -30z"/>
<path d="M4834 218 l-19 -23 23 19 c12 11 22 21 22 23 0 8 -8 2 -26 -19z"/>
<path d="M4789 183 c-13 -16 -12 -17 4 -4 9 7 17 15 17 17 0 8 -8 3 -21 -13z"/>
<path d="M410 166 c0 -3 9 -10 20 -16 11 -6 20 -8 20 -6 0 3 -9 10 -20 16 -11
6 -20 8 -20 6z"/>
<path d="M494 116 c11 -9 24 -16 30 -16 12 0 7 5 -24 19 -24 11 -24 11 -6 -3z"/>
<path d="M600 70 c8 -5 22 -9 30 -9 10 0 8 3 -5 9 -27 12 -43 12 -25 0z"/>
<path d="M658 53 c7 -3 16 -2 19 1 4 3 -2 6 -13 5 -11 0 -14 -3 -6 -6z"/>
<path d="M698 43 c7 -3 16 -2 19 1 4 3 -2 6 -13 5 -11 0 -14 -3 -6 -6z"/>
<path d="M753 33 c9 -2 23 -2 30 0 6 3 -1 5 -18 5 -16 0 -22 -2 -12 -5z"/>
<path d="M4408 33 c6 -2 18 -2 25 0 6 3 1 5 -13 5 -14 0 -19 -2 -12 -5z"/>
<path d="M1713 23 c482 -2 1272 -2 1755 0 482 1 87 2 -878 2 -965 0 -1360 -1
-877 -2z"/>
</g>
</svg>
